<svg width="50" height="50" viewBox="0 0 50 50" fill="none" xmlns="http://www.w3.org/2000/svg">


    <g id="logo">
        <path d="M19.8417 2.25339C20.0952 2.50873 20.1744 2.7477 20.1684 3.08173C20.1447 3.34544 20.0801 3.60271 20.0181 3.86119C19.9771 4.03234 19.9379 4.20379 19.8989 4.37528C19.8912 4.40885 19.8835 4.44243 19.8757 4.47703C19.8187 4.72989 19.7734 4.98277 19.7381 5.23866C19.6866 5.60952 19.6087 5.97393 19.5249 6.34018C19.4339 6.73812 19.3509 7.13538 19.2872 7.53749C19.1598 8.33472 18.9853 9.12539 18.8198 9.9171C18.7467 10.2669 18.6754 10.6169 18.6047 10.9671C18.5335 11.3186 18.4563 11.6686 18.3735 12.0182C18.3085 12.2981 18.258 12.5793 18.2086 12.8615C18.1263 13.3293 18.0139 13.7878 17.8879 14.248C17.8011 14.5656 17.8011 14.5656 17.8155 14.8889C17.907 15.0256 17.907 15.0256 18.0593 15.1018C18.2285 15.1018 18.3434 15.0974 18.4803 15.0059C18.5648 14.9114 18.5812 14.8381 18.6058 14.7203C18.6151 14.6771 18.6244 14.634 18.6339 14.5895C18.6481 14.5191 18.6481 14.5191 18.6626 14.4473C18.6729 14.3984 18.6832 14.3494 18.6938 14.2991C18.7268 14.141 18.7588 13.9829 18.7905 13.8247C18.8062 13.7465 18.8062 13.7465 18.8222 13.6667C18.8742 13.4062 18.9256 13.1455 18.9766 12.8848C19.0555 12.4819 19.0555 12.4819 19.0844 12.3353C19.0947 12.2832 19.0947 12.2832 19.1051 12.23C19.1183 12.1659 19.1183 12.1659 19.1318 12.1005C19.142 12.0513 19.142 12.0513 19.1523 12.001C19.1989 11.7805 19.2531 11.5633 19.3163 11.346C19.4535 10.8723 19.542 10.3989 19.615 9.91482C19.6492 9.68866 19.6853 9.46274 19.7216 9.23683C19.7327 9.16736 19.7327 9.16736 19.7441 9.09649C19.8261 8.59124 19.9224 8.08825 20.0215 7.58538C20.0296 7.54405 20.0377 7.50272 20.0461 7.46013C20.1157 7.10688 20.1858 6.75382 20.2641 6.40195C20.3509 6.0109 20.4081 5.61962 20.4593 5.22405C20.5698 4.37853 20.5698 4.37853 20.9356 4.11852C21.197 3.96087 21.4576 3.95883 21.7643 3.99081C22.0676 4.05464 22.2857 4.15917 22.488 4.36663C22.6616 4.65138 22.655 4.95558 22.6497 5.26943C22.6492 5.31428 22.6488 5.35914 22.6484 5.40535C22.6468 5.54403 22.6445 5.68268 22.6419 5.82135C22.6412 5.862 22.6405 5.90264 22.6399 5.94452C22.595 8.55577 22.3747 11.1993 21.9269 13.7815C21.8693 14.1148 21.8179 14.4486 21.768 14.7828C21.7602 14.8344 21.7525 14.886 21.7445 14.9391C21.7143 15.1407 21.6841 15.3423 21.6542 15.544C21.6341 15.6799 21.6135 15.8158 21.5928 15.9517C21.5869 15.992 21.581 16.0323 21.575 16.0738C21.5167 16.4518 21.5167 16.4518 21.4231 16.5918C21.0792 16.6894 20.7125 16.7083 20.3542 16.7439C19.677 16.8119 19.0118 16.9053 18.3457 17.0333C18.2083 17.0595 18.0707 17.0843 17.933 17.1089C17.0537 17.2699 16.2005 17.5106 15.378 17.8263C15.3019 17.8522 15.2257 17.878 15.1495 17.9035C14.8903 17.9931 14.6406 18.099 14.3894 18.2041C14.1829 18.2898 13.9755 18.3687 13.7627 18.4413C12.4852 18.8781 11.2741 19.5579 10.1617 20.2529C10.1022 20.2895 10.0427 20.3262 9.98322 20.3628C9.84107 20.4505 9.69964 20.539 9.5587 20.6282C9.48168 20.677 9.40443 20.7254 9.32718 20.7738C9.04099 20.9566 8.77669 21.1503 8.51852 21.3617C8.34512 21.5032 8.16544 21.6314 7.97568 21.7556C7.8204 21.8623 7.67847 21.981 7.53597 22.1004C7.4186 22.177 7.33199 22.1957 7.18786 22.2111C7.15161 22.0654 7.12917 21.924 7.11722 21.7753C7.11363 21.7314 7.11004 21.6875 7.10634 21.6423C7.10079 21.5711 7.10079 21.5711 7.09512 21.4984C7.09112 21.4483 7.08713 21.3983 7.08301 21.3468C7.07001 21.1826 7.05731 21.0184 7.04465 20.8542C7.04023 20.7974 7.0358 20.7407 7.03136 20.684C6.97233 19.9269 6.92475 19.17 6.89231 18.4117C6.85594 17.5654 6.7923 16.7259 6.65465 15.8869C6.57367 15.364 6.53098 14.8372 6.48097 14.3116C6.47551 14.2546 6.47003 14.1977 6.46455 14.1408C6.40164 13.487 6.34043 12.8334 6.29416 12.1786C6.26737 11.8011 6.23338 11.4243 6.19817 11.0474C6.10283 10.0227 6.0129 8.99701 6.00261 7.96852C6.00175 7.92096 6.00089 7.8734 6 7.8244C6.00041 7.40329 6.06983 7.05325 6.41432 6.74494C6.70164 6.51714 6.93222 6.46924 7.32611 6.4807C7.56299 6.51415 7.71661 6.59872 7.87037 6.75791C8.02699 6.97252 8.10778 7.15756 8.16154 7.40645C8.16943 7.44099 8.17731 7.47554 8.18543 7.51113C8.28579 7.96179 8.3669 8.41558 8.44863 8.86904C8.47735 9.02838 8.50636 9.18768 8.53544 9.34696C8.60291 9.71683 8.6699 10.0868 8.7367 10.4567C8.9971 11.8986 9.29548 13.334 9.61626 14.7665C9.62779 14.8183 9.63932 14.87 9.6512 14.9233C9.68433 15.0717 9.71775 15.2199 9.75127 15.3682C9.76101 15.4118 9.77075 15.4555 9.78078 15.5005C9.82874 15.7108 9.88093 15.92 9.9405 16.1281C9.95132 16.1661 9.96213 16.204 9.97327 16.2432C10.0103 16.3509 10.0103 16.3509 10.1617 16.4215C10.3423 16.4299 10.4771 16.429 10.6492 16.3789C10.6815 15.9557 10.5944 15.5658 10.4964 15.1543C10.4501 14.9595 10.4056 14.7645 10.3608 14.5695C10.3519 14.5308 10.343 14.4921 10.3338 14.4523C10.2603 14.1322 10.1953 13.8114 10.1342 13.4894C10.0507 13.0529 9.95528 12.6192 9.85392 12.1857C9.66882 11.3939 9.50857 10.5985 9.34909 9.80258C9.303 9.57338 9.25502 9.34455 9.2053 9.11593C9.14712 8.8476 9.09552 8.57878 9.04648 8.30908C8.98367 7.97123 8.91039 7.6372 8.82406 7.30335C8.6896 6.78149 8.58777 6.25577 8.48692 5.72829C8.45429 5.56031 8.42028 5.39257 8.38587 5.22486C8.37444 5.16869 8.36301 5.11252 8.35159 5.05635C8.32993 4.95003 8.30805 4.84376 8.28589 4.73752C8.14378 4.03348 8.14378 4.03348 8.37997 3.69747C8.5853 3.45297 8.84437 3.28724 9.18664 3.22453C9.6667 3.18041 9.99097 3.2541 10.3658 3.51721C10.8504 3.86586 10.9319 4.57529 11.0605 5.08435C11.0796 5.15859 11.0988 5.23283 11.1181 5.30706C11.1561 5.45395 11.1939 5.60087 11.2314 5.74785C11.2983 6.00937 11.3664 6.27063 11.4353 6.53175C11.4467 6.57516 11.4582 6.61857 11.4699 6.66329C11.6994 7.52775 11.9559 8.38663 12.2113 9.24547C12.2712 9.44716 12.3303 9.649 12.3884 9.85111C12.8174 11.7682 12.8174 11.7682 13.9155 13.399C14.0828 13.4624 14.0828 13.4624 14.2567 13.4415C14.4941 13.2987 14.6105 13.16 14.7168 12.9254C14.7308 12.8958 14.7448 12.8663 14.7592 12.8359C14.8041 12.7401 14.8474 12.6439 14.8905 12.5475C14.9125 12.4992 14.9125 12.4992 14.9349 12.4499C15.1433 11.9891 15.3079 11.5257 15.443 11.0448C15.4777 10.922 15.5134 10.7993 15.5492 10.6768C15.6401 10.3642 15.7288 10.0511 15.8167 9.73787C15.826 9.70487 15.8353 9.67188 15.8449 9.63788C16.0958 8.74471 16.3385 7.8517 16.5318 6.94747C16.5885 6.68579 16.6517 6.43098 16.7455 6.17722C16.8479 5.89944 16.9026 5.6224 16.9532 5.33445C17.0661 4.72848 17.2188 4.13563 17.3859 3.53951C17.4385 3.3476 17.4861 3.15479 17.5331 2.96177C17.6591 2.56994 18.0003 2.31197 18.3933 2.11503C18.869 1.91776 19.4144 1.98087 19.8417 2.25339Z"
              fill="#FBFBFB"/>
        <path d="M25.6251 13.7432C25.797 13.8794 25.9224 14.011 25.9944 14.2169C26.0163 14.4667 25.9769 14.5961 25.8317 14.8034C25.7968 14.8549 25.7619 14.9064 25.727 14.9579C25.7087 14.9844 25.6904 15.0109 25.6716 15.0382C25.3272 15.5392 25.0476 16.0526 24.8117 16.6079C24.7982 16.6394 24.7847 16.671 24.7708 16.7034C24.2583 17.9242 24.2189 19.2704 24.1439 20.5689C24.0707 21.836 23.9845 23.0831 23.6586 24.3168C23.6454 24.3673 23.6321 24.4177 23.6185 24.4697C23.4833 24.9618 23.3003 25.4132 23.0023 25.8366C22.9796 25.8692 22.957 25.9019 22.9336 25.9356C22.2227 26.9464 21.1754 27.9371 19.8919 28.2022C19.1578 28.3331 18.3224 28.3206 17.6212 28.0669C17.5722 28.0506 17.5232 28.0342 17.4727 28.0174C17.0057 27.849 16.5949 27.5987 16.2494 27.2549C16.1984 27.2061 16.1984 27.2061 16.1464 27.1563C15.8477 26.8558 15.6417 26.5381 15.4452 26.1721C15.4152 26.1174 15.4152 26.1174 15.3846 26.0616C14.9931 25.2514 15.0022 24.1376 15.2976 23.3024C15.7074 22.2621 16.2789 21.4857 17.1955 20.8035C17.2367 20.772 17.2779 20.7405 17.3204 20.708C18.3185 19.9756 19.7226 19.5295 20.9799 19.5403C20.9884 19.5103 20.9969 19.4803 21.0056 19.4494C21.1051 19.0988 21.2112 18.7502 21.319 18.4018C21.3939 18.1587 21.4666 17.9153 21.5349 17.6704C21.8224 16.6428 22.2086 15.5632 22.9668 14.7583C23.002 14.7199 23.0372 14.6815 23.0734 14.6419C23.1783 14.5289 23.2849 14.4178 23.3925 14.3071C23.4202 14.2777 23.4479 14.2484 23.4764 14.2181C23.6878 14.0028 23.9237 13.8575 24.1967 13.7206C24.241 13.6974 24.241 13.6974 24.2862 13.6738C24.6962 13.4918 25.2481 13.5044 25.6251 13.7432Z"
              fill="#FCFCFC"/>
        <path d="M20.9318 17.8815C20.9248 17.9841 20.9155 18.0865 20.9052 18.1889C20.9002 18.2459 20.8953 18.303 20.8902 18.3617C20.8372 18.5131 20.8372 18.5131 20.6947 18.5951C20.4902 18.6602 20.279 18.7015 20.0684 18.7443C19.654 18.8338 19.2508 18.9471 18.8474 19.0742C18.769 19.0985 18.769 19.0985 18.689 19.1233C18.1922 19.2829 17.745 19.4873 17.3223 19.7834C17.201 19.8624 17.0765 19.9301 16.9473 19.9966C16.6573 20.1461 16.4235 20.3073 16.1984 20.5397C16.1167 20.6231 16.0346 20.6925 15.941 20.7632C15.7108 20.9471 15.5325 21.1746 15.3497 21.4004C15.3081 21.451 15.3081 21.451 15.2656 21.5026C14.8824 21.9945 14.5152 22.5968 14.4036 23.205C14.3944 23.2474 14.3944 23.2474 14.385 23.2907C14.1827 24.2246 14.0984 25.3485 14.5455 26.2276C14.5614 26.2589 14.5773 26.2903 14.5936 26.3225C14.832 26.7873 15.0767 27.1978 15.4443 27.581C15.4799 27.6213 15.5155 27.6616 15.5522 27.7032C15.954 28.1513 16.3481 28.3032 16.9374 28.4664C17.0588 28.5006 17.18 28.5351 17.3012 28.5697C17.3859 28.5937 17.3859 28.5937 17.4722 28.6182C17.5883 28.6539 17.693 28.6923 17.8022 28.7429C17.9979 28.8166 18.1661 28.8174 18.3743 28.8132C18.4282 28.8134 18.4282 28.8134 18.4832 28.8137C18.7304 28.8114 18.9433 28.7709 19.1815 28.7089C19.3234 28.7033 19.3234 28.7033 19.418 28.7089C19.4123 28.8108 19.4123 28.8108 19.3707 28.9345C19.2478 29.0243 19.2478 29.0243 19.0839 29.1093C19.0545 29.1245 19.0251 29.1398 18.9948 29.1555C17.1656 30.0859 15.0146 30.2364 13.0323 29.662C12.6533 29.5433 12.2982 29.3779 11.9437 29.2051C11.9059 29.1869 11.8682 29.1687 11.8293 29.1499C11.2054 28.847 10.6268 28.5328 10.0932 28.097C9.93494 27.9694 9.77103 27.8506 9.60427 27.7333C9.58012 27.7128 9.55597 27.6924 9.53109 27.6713C9.53109 27.6415 9.53109 27.6117 9.53109 27.581C9.49987 27.581 9.46865 27.581 9.43648 27.581C9.43648 27.5513 9.43648 27.5215 9.43648 27.4908C9.40928 27.4804 9.38209 27.47 9.35407 27.4593C9.15031 27.3473 9.02392 27.151 8.88099 26.9764C8.82223 26.9052 8.76209 26.8351 8.70195 26.7649C8.40392 26.4137 8.17783 26.0464 7.97 25.6411C7.92967 25.564 7.92967 25.564 7.88851 25.4854C7.45899 24.6359 7.45899 24.6359 7.59156 24.2426C7.91484 23.6535 8.42009 23.2832 8.96342 22.8892C8.99346 22.8673 9.02351 22.8454 9.05446 22.8229C9.47637 22.5159 9.90575 22.2203 10.3405 21.9302C10.4914 21.8292 10.6398 21.7254 10.7877 21.6203C11.0496 21.4376 11.3241 21.2763 11.6002 21.1139C11.8082 20.9912 12.0136 20.8649 12.2186 20.7378C12.2865 20.6958 12.3544 20.6538 12.4223 20.6118C12.454 20.5922 12.4857 20.5726 12.5183 20.5523C12.6742 20.4559 12.8303 20.36 12.9876 20.2657C13.0616 20.2212 13.1356 20.1766 13.2089 20.131C14.0957 19.5803 15.0791 19.0913 16.0991 18.8122C16.21 18.7814 16.3198 18.748 16.4298 18.7144C16.9409 18.5598 17.4518 18.4482 17.9784 18.354C18.1654 18.3193 18.3511 18.2796 18.5369 18.2396C18.5722 18.2321 18.6075 18.2245 18.6439 18.2168C18.8005 18.1833 18.9571 18.1496 19.1136 18.1155C19.4314 18.0481 19.7502 17.991 20.0714 17.9407C20.1081 17.9348 20.1449 17.9289 20.1827 17.9227C20.4351 17.8846 20.6762 17.8764 20.9318 17.8815Z"
              fill="#FBFBFB"/>
    </g>

    <g id="englishWord">
        <path d="M13.4415 3.00022C13.2506 3.00544 13.0746 3.10467 12.9709 3.26541L11.2932 5.78809H5.57895C5.25925 5.78809 5 6.04794 5 6.36838V12.1714C5 12.4918 5.25925 12.7517 5.57895 12.7517H11.3684C11.6881 12.7517 11.9474 12.4918 11.9474 12.1714V7.59293L10.7895 9.33382V11.5911H6.15789V6.94868H10.5211L8.89273 9.39684L8.18108 7.97012C8.04156 7.68171 7.69523 7.56124 7.40749 7.70109C7.11976 7.84095 6.99957 8.18808 7.13909 8.47649C7.14118 8.48067 7.14315 8.48484 7.14535 8.48902L8.30324 10.8102C8.44624 11.0969 8.79396 11.2132 9.08007 11.0698C9.17016 11.0247 9.24693 10.9568 9.30285 10.8728L13.9344 3.9092C14.1156 3.64504 14.0489 3.28375 13.7854 3.10212C13.6843 3.0326 13.564 2.99685 13.4415 3.00022ZM16 8.10951C15.6803 8.10951 15.4211 8.36937 15.4211 8.68981V9.8504C15.4211 10.1708 15.6803 10.4307 16 10.4307H26.4211C26.7407 10.4307 27 10.1708 27 9.8504V8.68981C27 8.36937 26.7407 8.10951 26.4211 8.10951H16ZM5.57895 13.9166C5.25925 13.9166 5 14.1764 5 14.4968V20.2998C5 20.6203 5.25925 20.8801 5.57895 20.8801H11.3684C11.6881 20.8801 11.9474 20.6203 11.9474 20.2998V14.4968C11.9474 14.1764 11.6881 13.9166 11.3684 13.9166H5.57895ZM6.15789 15.0771H10.7895V19.7195H6.15789V15.0771ZM16 16.2334C15.6803 16.2334 15.4211 16.4933 15.4211 16.8137V17.9743C15.4211 18.2948 15.6803 18.5546 16 18.5546H26.4211C26.7407 18.5546 27 18.2948 27 17.9743V16.8137C27 16.4933 26.7407 16.2334 26.4211 16.2334H16ZM5.57895 22.0364C5.25925 22.0364 5 22.2963 5 22.6167V28.4197C5 28.7401 5.25925 29 5.57895 29H11.3684C11.6881 29 11.9474 28.7401 11.9474 28.4197V22.6167C11.9474 22.2963 11.6881 22.0364 11.3684 22.0364H5.57895ZM6.15789 23.197H10.7895V27.8394H6.15789V23.197ZM16 24.3617C15.6803 24.3617 15.4211 24.6215 15.4211 24.942V26.1026C15.4211 26.423 15.6803 26.6829 16 26.6829H26.4211C26.7407 26.6829 27 26.423 27 26.1026V24.942C27 24.6215 26.7407 24.3617 26.4211 24.3617H16Z"
              fill="#FBFBFB"/>
    </g>
    <g id="random">
        <path fill-rule="evenodd" clip-rule="evenodd"
              d="M3.00374 10.4453C3.0039 9.83281 3.50172 9.08095 4.1177 8.76473L14.8863 3.23671C15.5014 2.92091 16.4977 2.92091 17.114 3.23782L27.8864 8.77638C28.5017 9.0926 29.0002 9.84473 29 10.4598L28.9954 21.5002C28.9953 22.1136 28.4967 22.8684 27.8825 23.1859L17.0906 28.762C16.4761 29.0796 15.4811 29.0795 14.8656 28.7606L4.11169 23.1873C3.49733 22.869 2.99968 22.1147 3 21.502L3.00374 10.4453ZM5.26872 9.54738L15.9685 14.6456L26.1697 9.61409L15.9513 4.49383L5.26872 9.54738ZM4.57863 11.1974C4.57863 11.4232 4.40554 21.1639 4.40554 21.1639C4.40001 21.4698 4.64396 21.8458 4.95277 22.0049L14.9664 27.1618L15.0586 16.4252C15.0586 16.4252 4.57863 10.9715 4.57863 11.1974ZM16.9481 27.1385L26.848 21.7766C27.227 21.5714 27.5343 21.0949 27.5343 20.7116V11.1426L16.9481 16.3454V27.1385Z"
              fill="#FBFBFB"/>
        <path fill-rule="evenodd" clip-rule="evenodd"
              d="M7.65158 16.7811C6.84701 17.1643 5.7803 16.8831 5.26916 16.1531C4.75819 15.4232 4.99626 14.5207 5.80083 14.1376C6.60557 13.7544 7.67227 14.0357 8.18324 14.7656C8.69438 15.4956 8.45631 16.398 7.65158 16.7811ZM13.0356 19.6949C12.231 20.0781 11.1643 19.7969 10.6531 19.0669C10.1422 18.3369 10.3802 17.4345 11.1848 17.0514C11.9895 16.6682 13.0562 16.9494 13.5672 17.6794C14.0784 18.4094 13.8403 19.3118 13.0356 19.6949ZM7.65158 21.9149C6.84701 22.2981 5.7803 22.0169 5.26916 21.2869C4.75819 20.5569 4.99626 19.6545 5.80083 19.2714C6.60557 18.8882 7.67227 19.1694 8.18324 19.8994C8.69438 20.6294 8.45631 21.5318 7.65158 21.9149ZM13.0356 24.8287C12.231 25.2119 11.1643 24.9306 10.6531 24.2007C10.1422 23.4707 10.3802 22.5683 11.1848 22.1852C11.9895 21.8019 13.0562 22.0832 13.5672 22.8132C14.0784 23.5431 13.8403 24.4456 13.0356 24.8287ZM26.1991 13.9989C25.3943 13.6157 24.3278 13.8969 23.8166 14.6269C23.3057 15.3568 23.5436 16.2593 24.3483 16.6424C25.153 17.0256 26.2197 16.7443 26.7307 16.0144C27.2419 15.2844 27.0038 14.382 26.1991 13.9989ZM23.467 18.0227C22.6624 17.6394 21.5957 17.9207 21.0846 18.6506C20.5736 19.3806 20.8117 20.283 21.6163 20.6661C22.421 21.0494 23.4877 20.7681 23.9987 20.0381C24.5098 19.3082 24.2718 18.4057 23.467 18.0227ZM20.6068 21.9077C19.8022 21.5244 18.7355 21.8057 18.2244 22.5357C17.7134 23.2656 17.9515 24.1681 18.756 24.5512C19.5608 24.9344 20.6275 24.6531 21.1384 23.9232C21.6496 23.1932 21.4115 22.2908 20.6068 21.9077ZM16.1885 8C15.12 8 14.2537 8.68335 14.2537 9.52626C14.2537 10.3692 15.12 11.0525 16.1885 11.0525C17.2571 11.0525 18.1234 10.3692 18.1234 9.52626C18.1234 8.68335 17.2571 8 16.1885 8Z"
              fill="#FBFBFB"/>
    </g>
    <g id="back">
        <path d="M28.4435 23.9999C28.2203 23.9999 28.0156 23.8774 27.9279 23.6763C27.8635 23.5304 26.2554 20.0687 20.2427 19.3831C18.9903 19.2372 17.4903 19.1623 15.6686 19.1492V23.464C15.6686 23.6632 15.5565 23.8437 15.3723 23.9391C15.1891 24.0308 14.9698 24.0177 14.7992 23.9083L3.24756 16.4461C3.09162 16.346 3 16.1777 3 16.0009C3 15.8222 3.09162 15.6595 3.24756 15.5547L14.8041 8.09162C14.9747 7.97845 15.192 7.97096 15.3772 8.0645C15.5624 8.1599 15.6725 8.34042 15.6725 8.53404V12.5495C18.1852 12.8637 29 14.7288 29 23.4686C29 23.7221 28.8138 23.9438 28.5526 23.9943C28.5166 23.9999 28.4786 23.9999 28.4435 23.9999Z"
              fill="#FBFBFB"/>
    </g>
    <g id="back">
        <path d="M28.4435 23.9999C28.2203 23.9999 28.0156 23.8774 27.9279 23.6763C27.8635 23.5304 26.2554 20.0687 20.2427 19.3831C18.9903 19.2372 17.4903 19.1623 15.6686 19.1492V23.464C15.6686 23.6632 15.5565 23.8437 15.3723 23.9391C15.1891 24.0308 14.9698 24.0177 14.7992 23.9083L3.24756 16.4461C3.09162 16.346 3 16.1777 3 16.0009C3 15.8222 3.09162 15.6595 3.24756 15.5547L14.8041 8.09162C14.9747 7.97845 15.192 7.97096 15.3772 8.0645C15.5624 8.1599 15.6725 8.34042 15.6725 8.53404V12.5495C18.1852 12.8637 29 14.7288 29 23.4686C29 23.7221 28.8138 23.9438 28.5526 23.9943C28.5166 23.9999 28.4786 23.9999 28.4435 23.9999Z"
              fill="#FBFBFB"/>
    </g>
    <g id="closedWords">
        <path d="M3.353 11.015C3.49233 11.015 3.617 11.0517 3.727 11.125C3.84433 11.1983 3.914 11.3267 3.936 11.51C4.024 12.0893 4.079 12.6687 4.101 13.248C4.13033 13.82 4.145 14.469 4.145 15.195C4.145 15.503 4.11933 16.064 4.068 16.878C4.39067 16.9073 4.64 16.922 4.816 16.922C4.94067 16.922 5.223 16.9037 5.663 16.867C5.91967 16.8303 6.14333 16.812 6.334 16.812C6.51 16.812 6.67133 16.8303 6.818 16.867C6.96467 16.8963 7.115 16.9477 7.269 17.021C7.423 17.109 7.5 17.2447 7.5 17.428C7.5 17.5747 7.45233 17.7067 7.357 17.824C7.269 17.9413 7.16267 18 7.038 18C6.95 18 6.81067 17.9853 6.62 17.956C6.27533 17.9047 5.94533 17.879 5.63 17.879C5.52733 17.879 5.41 17.8863 5.278 17.901C5.15333 17.9083 5.06167 17.912 5.003 17.912C4.827 17.934 4.651 17.945 4.475 17.945C4.11567 17.945 3.793 17.9267 3.507 17.89C3.36033 17.8753 3.21367 17.8203 3.067 17.725C2.92033 17.6223 2.847 17.4757 2.847 17.285C2.847 17.175 2.86167 16.8927 2.891 16.438C2.94233 15.6827 2.968 15.107 2.968 14.711C2.968 14.403 2.95333 14.0803 2.924 13.743C2.89467 13.4057 2.87633 13.193 2.869 13.105C2.803 12.4817 2.77 11.9683 2.77 11.565C2.77 11.3743 2.814 11.235 2.902 11.147C2.99733 11.059 3.14767 11.015 3.353 11.015ZM8.04871 15.668C8.04871 15.3893 8.10004 15.1107 8.20271 14.832C8.30538 14.546 8.44104 14.2857 8.60971 14.051C8.77838 13.8163 9.04604 13.6257 9.41271 13.479C9.77938 13.325 10.1057 13.248 10.3917 13.248C10.685 13.248 10.982 13.2883 11.2827 13.369C11.5907 13.4497 11.8034 13.5743 11.9207 13.743C12.192 14.1243 12.3277 14.4983 12.3277 14.865C12.3277 15.063 12.2837 15.2317 12.1957 15.371C12.115 15.5103 11.9977 15.6607 11.8437 15.822C11.719 15.954 11.521 16.042 11.2497 16.086C10.9857 16.13 10.7217 16.152 10.4577 16.152C10.289 16.152 10.0837 16.1373 9.84171 16.108C9.59971 16.0713 9.36504 16.0273 9.13771 15.976C9.15238 16.1227 9.18904 16.2657 9.24771 16.405C9.30638 16.5443 9.37604 16.6507 9.45671 16.724C9.60338 16.8633 9.75371 16.9513 9.90771 16.988C10.069 17.0247 10.2744 17.043 10.5237 17.043C10.7877 17.043 11.0334 16.999 11.2607 16.911C11.444 16.845 11.5944 16.812 11.7117 16.812C11.851 16.812 11.9574 16.856 12.0307 16.944C12.104 17.0247 12.1407 17.131 12.1407 17.263C12.1407 17.4463 12.0344 17.5967 11.8217 17.714C11.609 17.8313 11.3634 17.9193 11.0847 17.978C10.8134 18.0293 10.5934 18.055 10.4247 18.055C10.08 18.055 9.74638 17.9927 9.42371 17.868C9.10104 17.7433 8.83338 17.5673 8.62071 17.34C8.44471 17.1347 8.30538 16.889 8.20271 16.603C8.10004 16.3097 8.04871 15.998 8.04871 15.668ZM10.4467 14.183C10.2854 14.183 10.124 14.216 9.96271 14.282C9.80138 14.3407 9.66938 14.425 9.56671 14.535C9.43471 14.6743 9.34304 14.788 9.29171 14.876C9.24771 14.9567 9.21838 15.0703 9.20371 15.217C9.38704 15.2757 9.76838 15.305 10.3477 15.305C10.663 15.305 10.905 15.2573 11.0737 15.162C11.2497 15.0667 11.3377 14.942 11.3377 14.788C11.3377 14.634 11.2424 14.4947 11.0517 14.37C10.861 14.2453 10.6594 14.183 10.4467 14.183ZM17.5589 18.044C17.3096 18.044 17.1189 18.0073 16.9869 17.934C16.8549 17.8533 16.7119 17.7067 16.5579 17.494C16.3672 17.6627 16.0812 17.7983 15.6999 17.901C15.3259 18.0037 15.0032 18.055 14.7319 18.055C14.2846 18.055 13.9216 17.934 13.6429 17.692C13.3716 17.4427 13.2359 17.0797 13.2359 16.603C13.2359 16.3977 13.2909 16.2107 13.4009 16.042C13.5182 15.866 13.6686 15.712 13.8519 15.58C14.0572 15.4407 14.2992 15.3307 14.5779 15.25C14.8639 15.1693 15.1242 15.129 15.3589 15.129C15.7549 15.129 16.1069 15.1657 16.4149 15.239V15.228C16.4149 14.832 16.3159 14.5607 16.1179 14.414C15.9272 14.26 15.6192 14.183 15.1939 14.183C14.9226 14.183 14.6879 14.304 14.4899 14.546C14.4166 14.6413 14.2626 14.689 14.0279 14.689C13.9106 14.689 13.8226 14.6413 13.7639 14.546C13.7126 14.4433 13.6869 14.3407 13.6869 14.238C13.6869 14.0253 13.7749 13.842 13.9509 13.688C14.1342 13.534 14.3542 13.4203 14.6109 13.347C14.8676 13.2663 15.1059 13.226 15.3259 13.226C15.5386 13.226 15.7916 13.27 16.0849 13.358C16.3782 13.446 16.6166 13.5633 16.7999 13.71C17.0199 13.9007 17.1886 14.1243 17.3059 14.381C17.4306 14.6303 17.4929 14.9053 17.4929 15.206C17.4929 15.3013 17.4856 15.4443 17.4709 15.635C17.4562 15.855 17.4489 16.0347 17.4489 16.174C17.4489 16.24 17.4416 16.3243 17.4269 16.427C17.4122 16.559 17.4049 16.669 17.4049 16.757C17.4049 16.8523 17.4342 16.944 17.4929 17.032C17.5516 17.12 17.6322 17.1933 17.7349 17.252C17.8302 17.3033 17.8926 17.3583 17.9219 17.417C17.9512 17.4757 17.9659 17.5417 17.9659 17.615C17.9659 17.6883 17.9182 17.78 17.8229 17.89C17.7349 17.9927 17.6469 18.044 17.5589 18.044ZM15.3589 15.943C15.0729 15.943 14.8199 15.998 14.5999 16.108C14.3799 16.218 14.2699 16.4123 14.2699 16.691C14.2699 16.8303 14.3176 16.9477 14.4129 17.043C14.5156 17.1383 14.6256 17.186 14.7429 17.186C15.0582 17.186 15.3222 17.153 15.5349 17.087C15.7476 17.021 16.0042 16.9 16.3049 16.724C16.3416 16.6067 16.3636 16.4417 16.3709 16.229C16.3709 16.1483 16.3746 16.086 16.3819 16.042C15.9859 15.976 15.6449 15.943 15.3589 15.943ZM20.421 17.56C20.421 17.6847 20.3733 17.7947 20.278 17.89C20.1826 17.9853 20.0653 18.033 19.926 18.033C19.706 18.033 19.5446 17.9927 19.442 17.912C19.3393 17.824 19.288 17.6663 19.288 17.439C19.288 17.1677 19.2806 16.812 19.266 16.372C19.2513 16.0053 19.244 15.6973 19.244 15.448C19.244 15.3307 19.2513 15.1767 19.266 14.986C19.2806 14.81 19.288 14.678 19.288 14.59C19.266 14.4507 19.211 14.337 19.123 14.249C19.035 14.1537 18.9213 14.106 18.782 14.106C18.716 14.106 18.661 14.0767 18.617 14.018C18.573 13.952 18.551 13.886 18.551 13.82C18.551 13.6513 18.617 13.523 18.749 13.435C18.8883 13.347 19.0533 13.303 19.244 13.303C19.64 13.303 19.915 13.5377 20.069 14.007C20.2596 13.787 20.476 13.611 20.718 13.479C20.9673 13.3397 21.2056 13.27 21.433 13.27C21.7043 13.27 21.95 13.3433 22.17 13.49C22.3973 13.6367 22.511 13.8347 22.511 14.084C22.511 14.2233 22.4486 14.3663 22.324 14.513C22.2066 14.6597 22.0856 14.733 21.961 14.733C21.895 14.733 21.8363 14.7183 21.785 14.689C21.741 14.6523 21.686 14.601 21.62 14.535C21.5466 14.4617 21.4843 14.4103 21.433 14.381C21.3816 14.3443 21.323 14.326 21.257 14.326C21.1396 14.326 21.0296 14.3443 20.927 14.381C20.8243 14.4177 20.7546 14.4617 20.718 14.513C20.6006 14.6963 20.5126 14.8613 20.454 15.008C20.4026 15.1547 20.377 15.3123 20.377 15.481C20.377 15.6057 20.3733 15.7047 20.366 15.778L20.355 16.405C20.355 16.5003 20.3586 16.6067 20.366 16.724C20.3733 16.8413 20.3806 16.9293 20.388 16.988C20.41 17.186 20.421 17.3767 20.421 17.56ZM23.077 14.128C23.0184 14.084 22.9707 14.04 22.934 13.996C22.8974 13.9447 22.879 13.8567 22.879 13.732C22.879 13.5927 22.9267 13.4863 23.022 13.413C23.1247 13.3323 23.242 13.292 23.374 13.292C23.6307 13.292 23.8507 13.358 24.034 13.49C24.2247 13.622 24.364 13.8053 24.452 14.04C24.6134 13.7393 24.8187 13.534 25.068 13.424C25.3174 13.3067 25.662 13.248 26.102 13.248C26.278 13.248 26.4577 13.303 26.641 13.413C26.8317 13.5157 27.004 13.644 27.158 13.798C27.2827 13.9593 27.389 14.161 27.477 14.403C27.565 14.6377 27.609 14.8503 27.609 15.041C27.609 15.151 27.6017 15.3307 27.587 15.58C27.5724 15.844 27.565 16.053 27.565 16.207C27.565 16.7203 27.664 17.0357 27.862 17.153C27.8914 17.1677 27.9464 17.186 28.027 17.208C28.1077 17.23 28.1664 17.252 28.203 17.274C28.247 17.296 28.269 17.329 28.269 17.373C28.2764 17.549 28.2104 17.6957 28.071 17.813C27.939 17.923 27.7777 17.978 27.587 17.978C27.301 17.978 27.0774 17.901 26.916 17.747C26.7547 17.593 26.641 17.3583 26.575 17.043C26.5384 16.9257 26.52 16.7533 26.52 16.526C26.52 16.4013 26.5274 16.1997 26.542 15.921C26.564 15.701 26.575 15.4663 26.575 15.217C26.575 14.9603 26.5017 14.7367 26.355 14.546C26.2084 14.348 26.0067 14.249 25.75 14.249C25.596 14.249 25.4347 14.2967 25.266 14.392C25.0974 14.48 24.98 14.59 24.914 14.722C24.804 14.9493 24.7307 15.1803 24.694 15.415C24.606 15.8697 24.562 16.306 24.562 16.724C24.562 16.8267 24.5694 17.0247 24.584 17.318C24.584 17.34 24.584 17.395 24.584 17.483C24.584 17.5637 24.573 17.6407 24.551 17.714C24.5364 17.7873 24.507 17.8533 24.463 17.912C24.4337 17.9413 24.3787 17.9707 24.298 18C24.2174 18.0293 24.1477 18.044 24.089 18.044C23.9864 18.044 23.858 18 23.704 17.912C23.55 17.824 23.4584 17.725 23.429 17.615L23.418 17.461C23.418 17.4023 23.4254 17.3143 23.44 17.197C23.528 16.6837 23.572 16.2363 23.572 15.855C23.572 15.6863 23.5684 15.558 23.561 15.47L23.55 14.964C23.55 14.81 23.506 14.6633 23.418 14.524C23.33 14.3773 23.2164 14.2453 23.077 14.128Z"
              fill="#FBFBFB"/>

        <g>
            <rect x="18" y="3" width="11" height="26" rx="1" fill="#FBFBFB" fill-opacity="0.94"
                  shape-rendering="crispEdges" />
        </g>
        <defs>
            <filter id="filter0_d_37_6" x="15.3" y="1.3" width="14.4" height="29.4" filterUnits="userSpaceOnUse"
                    color-interpolation-filters="sRGB">
                <feFlood flood-opacity="0" result="BackgroundImageFix"/>
                <feColorMatrix in="SourceAlpha" type="matrix" values="0 0 0 0 0 0 0 0 0 0 0 0 0 0 0 0 0 0 127 0"
                               result="hardAlpha"/>
                <feMorphology radius="2" operator="erode" in="SourceAlpha" result="effect1_dropShadow_37_6"/>
                <feOffset dx="-1"/>
                <feGaussianBlur stdDeviation="1.85"/>
                <feComposite in2="hardAlpha" operator="out"/>
                <feColorMatrix type="matrix" values="0 0 0 0 0 0 0 0 0 0 0 0 0 0 0 0 0 0 0.43 0"/>
                <feBlend mode="normal" in2="BackgroundImageFix" result="effect1_dropShadow_37_6"/>
                <feBlend mode="normal" in="SourceGraphic" in2="effect1_dropShadow_37_6" result="shape"/>
            </filter>
        </defs>
    </g>
    <g id="arrows">
        <svg width="32" height="32" viewBox="0 0 32 32" fill="none" xmlns="http://www.w3.org/2000/svg">
            <g clip-path="url(#clip0_35_12)">
                <path d="M11.8182 12.8182H26.2066L23.5123 15.5124C23.1928 15.8319 23.1928 16.3499 23.5123 16.6695C23.6721 16.8292 23.8815 16.9091 24.0909 16.9091C24.3003 16.9091 24.5097 16.8292 24.6694 16.6694L28.7603 12.5785C29.0799 12.259 29.0799 11.741 28.7603 11.4214L24.6694 7.33052C24.3499 7.01105 23.8319 7.01105 23.5123 7.33052C23.1928 7.65 23.1928 8.16807 23.5123 8.4876L26.2066 11.1818H11.8182C11.3663 11.1818 11 11.5481 11 12C11 12.4519 11.3663 12.8182 11.8182 12.8182Z"
                      fill="#FBFBFB"/>
            </g>
            <g clip-path="url(#clip1_35_12)">
                <path d="M20.1818 20.8182H5.79344L8.48765 23.5124C8.80718 23.8319 8.80718 24.3499 8.48765 24.6695C8.32789 24.8292 8.11849 24.9091 7.90909 24.9091C7.69969 24.9091 7.49029 24.8292 7.33058 24.6694L3.23967 20.5785C2.92014 20.259 2.92014 19.741 3.23967 19.4214L7.33058 15.3305C7.65005 15.0111 8.16813 15.0111 8.48765 15.3305C8.80718 15.65 8.80718 16.1681 8.48765 16.4876L5.79344 19.1818H20.1818C20.6337 19.1818 21 19.5481 21 20C21 20.4519 20.6337 20.8182 20.1818 20.8182Z"
                      fill="#FBFBFB"/>
            </g>
            <defs>
                <clipPath id="clip0_35_12">
                    <rect width="18" height="18" fill="white" transform="translate(11 3)"/>
                </clipPath>
                <clipPath id="clip1_35_12">
                    <rect width="18" height="18" fill="white" transform="matrix(-1 0 0 1 21 11)"/>
                </clipPath>
            </defs>
        </svg>
    </g>


    <!--socials-->

    <g id="whatsapp">
        <g>
            <path d="M3 29L4.79309 22.5C3.62761 20.4828 3 18.2414 3 15.9103C3 8.8276 8.82761 3 15.9552 3C23.0827 3 29 8.8276 29 15.9103C29 22.993 23.0828 29 15.9552 29C13.7138 29 11.5621 28.2828 9.63447 27.2069L3 29Z"
                  fill="#EDEDED"/>
            <path d="M9.99308 24.8758L10.3965 25.1C12.0552 26.131 13.9828 26.7586 16 26.7586C21.8724 26.7586 26.7586 21.8724 26.7586 15.9103C26.7586 9.94824 21.8724 5.24138 15.9552 5.24138C10.0379 5.24138 5.24138 9.99308 5.24138 15.9103C5.24138 17.9724 5.82414 19.9896 6.9 21.6931L7.16898 22.0965L6.13797 25.8621L9.99308 24.8758Z"
                  fill="#55CD6C"/>
            <path d="M12.5035 9.90345L11.6517 9.85861C11.3828 9.85861 11.1138 9.94829 10.9345 10.1276C10.5311 10.4862 9.85866 11.1586 9.67935 12.0552C9.36558 13.4 9.85866 15.0138 11.0242 16.6276C12.1897 18.2414 14.4311 20.8414 18.3759 21.9621C19.6311 22.3207 20.6173 22.0965 21.4242 21.6035C22.0518 21.2 22.4552 20.5724 22.5897 19.9L22.7242 19.2724C22.769 19.0931 22.6794 18.8689 22.5 18.7793L19.6759 17.4793C19.4966 17.3896 19.2724 17.4345 19.138 17.6138L18.0173 19.0482C17.9276 19.1379 17.7931 19.1827 17.6587 19.1379C16.8966 18.8689 14.3414 17.7931 12.9517 15.1035C12.9069 14.969 12.9069 14.8345 12.9966 14.7448L14.0724 13.5345C14.1621 13.4 14.2069 13.2207 14.1621 13.0862L12.8621 10.1724C12.8172 10.0379 12.6828 9.90345 12.5035 9.90345Z"
                  fill="#FEFEFE"/>
        </g>
        <defs>
            <clipPath id="clip0_1_10">
                <rect width="26" height="26" fill="white" transform="translate(3 3)"/>
            </clipPath>
        </defs>

    </g>

    <g id="gitHub">
        <path fill-rule="evenodd" clip-rule="evenodd"
              d="M16 4.03654C9.22639 4.03654 3.73369 9.52803 3.73369 16.3029C3.73369 21.7226 7.24836 26.3204 12.1221 27.9425C12.735 28.0563 12.96 27.6764 12.96 27.3525C12.96 27.06 12.9487 26.0937 12.9434 25.0687C9.53088 25.8107 8.8108 23.6215 8.8108 23.6215C8.25281 22.2036 7.44884 21.8266 7.44884 21.8266C6.33572 21.0653 7.53274 21.0812 7.53274 21.0812C8.76428 21.1675 9.41306 22.3452 9.41306 22.3452C10.5071 24.2201 12.2826 23.6781 12.9826 23.3649C13.0927 22.5721 13.4106 22.0308 13.7614 21.7245C11.0368 21.4147 8.17258 20.3627 8.17258 15.6626C8.17258 14.3234 8.65195 13.2292 9.43663 12.37C9.30906 12.0612 8.8892 10.8136 9.55525 9.12401C9.55525 9.12401 10.5851 8.79434 12.9292 10.3814C13.9078 10.1094 14.9574 9.97267 16 9.968C17.042 9.97267 18.0922 10.109 19.0727 10.381C21.4139 8.79394 22.4425 9.12361 22.4425 9.12361C23.1102 10.813 22.6903 12.0608 22.563 12.3695C23.3495 13.2288 23.8254 14.323 23.8254 15.6622C23.8254 20.3735 20.9558 21.4106 18.2244 21.7145C18.6646 22.0952 19.0566 22.8419 19.0566 23.9861C19.0566 25.6273 19.0424 26.9482 19.0424 27.3522C19.0424 27.6787 19.2634 28.0612 19.885 27.9407C24.7559 26.3169 28.2665 21.7206 28.2665 16.3029C28.2663 9.52843 22.7742 4.03654 16 4.03654Z"
              fill="#181616"/>
        <path d="M8.37957 21.6481C8.35255 21.709 8.25668 21.7273 8.16934 21.6857C8.07996 21.6459 8.0302 21.5628 8.05904 21.5016C8.08545 21.4387 8.18152 21.4214 8.27029 21.4634C8.35966 21.5035 8.41045 21.5874 8.37937 21.6483L8.37957 21.6481ZM8.87641 22.2024C8.81812 22.2567 8.70376 22.2315 8.62616 22.1455C8.54573 22.0602 8.5307 21.9459 8.59021 21.8908C8.65074 21.8368 8.76165 21.8624 8.84209 21.9477C8.92212 22.0342 8.93796 22.1476 8.87662 22.2026L8.87641 22.2024ZM9.36026 22.9087C9.2851 22.9611 9.16201 22.9121 9.08604 22.8031C9.01088 22.6938 9.01088 22.5628 9.08807 22.5106C9.16384 22.4581 9.2851 22.5055 9.36229 22.6135C9.43704 22.7242 9.43704 22.8555 9.36026 22.9087ZM10.0226 23.5914C9.95562 23.6655 9.81221 23.6456 9.7074 23.5447C9.60035 23.4457 9.57049 23.305 9.63773 23.231C9.70598 23.1567 9.84999 23.1774 9.95541 23.2778C10.0625 23.3765 10.0948 23.5174 10.0231 23.5912L10.0226 23.5914ZM10.9367 23.9877C10.9069 24.0838 10.7691 24.1274 10.63 24.0864C10.4913 24.0444 10.4005 23.932 10.4289 23.8349C10.4573 23.738 10.5961 23.6927 10.736 23.7364C10.8748 23.7783 10.9656 23.89 10.9367 23.9877ZM11.9408 24.061C11.9442 24.1622 11.8264 24.2459 11.6808 24.2479C11.5339 24.2513 11.4151 24.1693 11.4136 24.0697C11.4136 23.9676 11.529 23.8849 11.6757 23.8821C11.8213 23.8794 11.941 23.9607 11.941 24.0608L11.9408 24.061ZM12.8747 23.9022C12.8922 24.0007 12.7908 24.102 12.646 24.1291C12.5038 24.1555 12.3718 24.0941 12.3535 23.9964C12.336 23.8953 12.4392 23.7939 12.5814 23.7677C12.7264 23.7427 12.8564 23.802 12.8747 23.9022Z"
              fill="#181616"/>
    </g>
    <g id="gmail">
        <g>
            <path d="M4.77273 26H8.90909V16.2121L3 11.8939V24.2727C3 25.2285 3.79477 26 4.77273 26Z" fill="#4285F4"/>
            <path d="M23.0909 26H27.2273C28.2082 26 29 25.2256 29 24.2727V11.8939L23.0909 16.2121" fill="#34A853"/>
            <path d="M23.0909 8.72727V16.2121L29 11.8939V9.59091C29 7.45485 26.4975 6.23712 24.7455 7.51818"
                  fill="#FBBC04"/>
            <path d="M8.90909 16.2121V8.72728L16 13.9091L23.0909 8.72728V16.2121L16 21.3939" fill="#EA4335"/>
            <path d="M3 9.59091V11.8939L8.90909 16.2121V8.72727L7.25455 7.51818C5.49955 6.23712 3 7.45485 3 9.59091Z"
                  fill="#C5221F"/>
        </g>
        <defs>
            <clipPath id="clip0_1_10">
                <rect width="26" height="19" fill="white" transform="translate(3 7)"/>
            </clipPath>
        </defs>
    </g>
    <g id="telegram">
        <g clip-path="url(#clip0_1_10)">
            <path d="M16.0054 29.0108C23.1881 29.0108 29.0108 23.1881 29.0108 16.0054C29.0108 8.82272 23.1881 3 16.0054 3C8.82272 3 3 8.82272 3 16.0054C3 23.1881 8.82272 29.0108 16.0054 29.0108Z"
                  fill="#2AABEE"/>
            <path fill-rule="evenodd" clip-rule="evenodd"
                  d="M8.88005 15.8646C12.6701 14.2187 15.1933 13.1249 16.4602 12.5943C20.0662 11.0891 20.8242 10.8292 21.3115 10.8184C21.4198 10.8184 21.6581 10.8401 21.8205 10.97C21.9504 11.0783 21.9829 11.2191 22.0046 11.3274C22.0262 11.4356 22.0479 11.6631 22.0262 11.8363C21.8313 13.8938 20.9867 18.8859 20.5535 21.1816C20.3694 22.1562 20.0121 22.481 19.6656 22.5135C18.9075 22.5785 18.3336 22.0154 17.6081 21.5389C16.4602 20.7917 15.8213 20.3261 14.706 19.5898C13.4173 18.7451 14.2511 18.2795 14.9875 17.5214C15.1824 17.3265 18.5069 14.2945 18.5718 14.0237C18.5827 13.9913 18.5827 13.8613 18.5069 13.7963C18.4311 13.7314 18.3228 13.753 18.2362 13.7747C18.117 13.7963 16.2978 15.0092 12.7568 17.4023C12.237 17.7597 11.7713 17.9329 11.349 17.9221C10.8834 17.9113 9.99542 17.6622 9.32403 17.4456C8.51187 17.1858 7.86214 17.045 7.91629 16.5902C7.94877 16.3519 8.27364 16.1137 8.88005 15.8646Z"
                  fill="white"/>
        </g>
        <defs>
            <linearGradient id="paint0_linear_1_10" x1="15.9946" y1="3" x2="15.9946" y2="28.8051"
                            gradientUnits="userSpaceOnUse">
                <stop stop-color="#2AABEE"/>
                <stop offset="1" stop-color="#229ED9"/>
            </linearGradient>
            <clipPath id="clip0_1_10">
                <rect width="26" height="26" fill="white" transform="translate(3 3)"/>
            </clipPath>
        </defs>
    </g>



</svg>