<svg width="88" height="32" viewBox="0 0 88 32" fill="none" xmlns="http://www.w3.org/2000/svg">
    <path d="M34.6016 27H27.6523C27.543 27 27.4414 26.9805 27.3477 26.9414C27.2539 26.9023 27.1719 26.8496 27.1016 26.7832C27.0352 26.7129 26.9824 26.6309 26.9434 26.5371C26.9043 26.4434 26.8848 26.3418 26.8848 26.2324V18.5977H28.4082V25.4766H34.6016V27ZM37.0977 19.3652H35.5742V17.9883H37.0977V19.3652ZM37.0977 27H35.5742V20.666H37.0977V27ZM45.582 27H44.0586V23.4844C44.0586 23.2852 44.0234 23.1074 43.9531 22.9512C43.8867 22.791 43.7949 22.6543 43.6777 22.541C43.5605 22.4277 43.4219 22.3418 43.2617 22.2832C43.1055 22.2207 42.9355 22.1895 42.752 22.1895H40.0859V27H38.5625V21.4219C38.5625 21.3164 38.582 21.2188 38.6211 21.1289C38.6602 21.0352 38.7148 20.9551 38.7852 20.8887C38.8555 20.8184 38.9375 20.7637 39.0312 20.7246C39.125 20.6855 39.2246 20.666 39.3301 20.666H42.7637C42.9551 20.666 43.1562 20.6875 43.3672 20.7305C43.582 20.7734 43.793 20.8438 44 20.9414C44.2109 21.0352 44.4102 21.1562 44.5977 21.3047C44.7891 21.4492 44.957 21.627 45.1016 21.8379C45.25 22.0449 45.3672 22.2852 45.4531 22.5586C45.5391 22.832 45.582 23.1406 45.582 23.4844V27ZM53.8086 27.6094C53.8086 27.8711 53.7754 28.1055 53.709 28.3125C53.6426 28.5234 53.5547 28.707 53.4453 28.8633C53.3359 29.0234 53.209 29.1582 53.0645 29.2676C52.9199 29.3809 52.7676 29.4727 52.6074 29.543C52.4512 29.6133 52.291 29.6641 52.127 29.6953C51.9668 29.7305 51.8145 29.748 51.6699 29.748H48.9219V28.2246H51.6699C51.877 28.2246 52.0312 28.1719 52.1328 28.0664C52.2344 27.9609 52.2852 27.8086 52.2852 27.6094V22.7988C52.2852 22.5996 52.2344 22.4492 52.1328 22.3477C52.0312 22.2422 51.877 22.1895 51.6699 22.1895H48.9219C48.7344 22.1895 48.5859 22.248 48.4766 22.3652C48.3672 22.4785 48.3125 22.623 48.3125 22.7988V24.8613C48.3125 25.0605 48.3652 25.2129 48.4707 25.3184C48.5762 25.4238 48.7305 25.4766 48.9336 25.4766H51.6699V27H48.9219C48.7773 27 48.625 26.9844 48.4648 26.9531C48.3047 26.918 48.1445 26.8652 47.9844 26.7949C47.8281 26.7246 47.6777 26.6348 47.5332 26.5254C47.3887 26.4121 47.2617 26.2773 47.1523 26.1211C47.043 25.9609 46.9551 25.7773 46.8887 25.5703C46.8223 25.3594 46.7891 25.123 46.7891 24.8613V22.7988C46.7891 22.6543 46.8047 22.502 46.8359 22.3418C46.8711 22.1816 46.9238 22.0234 46.9941 21.8672C47.0645 21.707 47.1543 21.5547 47.2637 21.4102C47.377 21.2656 47.5117 21.1387 47.668 21.0293C47.8281 20.9199 48.0117 20.832 48.2188 20.7656C48.4258 20.6992 48.6602 20.666 48.9219 20.666H51.6699C51.8145 20.666 51.9668 20.6836 52.127 20.7188C52.291 20.75 52.4512 20.8008 52.6074 20.8711C52.7676 20.9414 52.9199 21.0332 53.0645 21.1465C53.209 21.2559 53.3359 21.3906 53.4453 21.5508C53.5547 21.707 53.6426 21.8887 53.709 22.0957C53.7754 22.3027 53.8086 22.5371 53.8086 22.7988V27.6094ZM62.7617 20.666C62.5898 21.2012 62.3887 21.7285 62.1582 22.248C61.9277 22.7676 61.6621 23.2637 61.3613 23.7363C61.0645 24.2051 60.7305 24.6406 60.3594 25.043C59.9922 25.4414 59.584 25.7871 59.1348 26.0801C58.6895 26.3691 58.2031 26.5977 57.6758 26.7656C57.1523 26.9297 56.584 27.0117 55.9707 27.0117C55.8652 27.0117 55.7656 26.9922 55.6719 26.9531C55.5781 26.9141 55.4961 26.8613 55.4258 26.7949C55.3555 26.7246 55.3008 26.6445 55.2617 26.5547C55.2227 26.4609 55.2031 26.3613 55.2031 26.2559V20.666H56.7266V25.4297C57.0977 25.4297 57.4531 25.3496 57.793 25.1895C58.1367 25.0293 58.4609 24.8184 58.7656 24.5566C59.0703 24.291 59.3516 23.9902 59.6094 23.6543C59.8711 23.3184 60.1035 22.9746 60.3066 22.623C60.5098 22.2676 60.6816 21.9199 60.8223 21.5801C60.9668 21.2402 61.0742 20.9355 61.1445 20.666H62.7617ZM69.6523 24.9023C69.6523 25.1133 69.6152 25.3418 69.541 25.5879C69.4668 25.8301 69.3457 26.0566 69.1777 26.2676C69.0137 26.4746 68.7969 26.6484 68.5273 26.7891C68.2617 26.9297 67.9375 27 67.5547 27H64.8066C64.5957 27 64.3672 26.9629 64.1211 26.8887C63.8789 26.8145 63.6523 26.6953 63.4414 26.5312C63.2344 26.3633 63.0605 26.1465 62.9199 25.8809C62.7793 25.6113 62.709 25.2852 62.709 24.9023C62.709 24.6914 62.7461 24.4629 62.8203 24.2168C62.8945 23.9707 63.0137 23.7441 63.1777 23.5371C63.3457 23.3262 63.5625 23.1504 63.8281 23.0098C64.0977 22.8691 64.4238 22.7988 64.8066 22.7988H67.5547V24.252H64.8066C64.5996 24.252 64.4395 24.3164 64.3262 24.4453C64.2129 24.5703 64.1562 24.7266 64.1562 24.9141C64.1562 25.1133 64.2207 25.2695 64.3496 25.3828C64.4824 25.4922 64.6387 25.5469 64.8184 25.5469H67.5547C67.7617 25.5469 67.9219 25.4844 68.0352 25.3594C68.1484 25.2344 68.2051 25.0781 68.2051 24.8906V22.7637C68.2051 22.5645 68.1426 22.4062 68.0176 22.2891C67.8965 22.1719 67.7422 22.1133 67.5547 22.1133H64.209V20.666H67.5547C67.7656 20.666 67.9922 20.7031 68.2344 20.7773C68.4805 20.8516 68.707 20.9727 68.9141 21.1406C69.125 21.3047 69.3008 21.5215 69.4414 21.791C69.582 22.0566 69.6523 22.3809 69.6523 22.7637V24.9023ZM81.3359 24.9023C81.3359 25.1133 81.2988 25.3418 81.2246 25.5879C81.1504 25.8301 81.0293 26.0566 80.8613 26.2676C80.6973 26.4746 80.4805 26.6484 80.2109 26.7891C79.9453 26.9297 79.6211 27 79.2383 27H76.4902C76.2793 27 76.0508 26.9629 75.8047 26.8887C75.5625 26.8145 75.3359 26.6953 75.125 26.5312C74.918 26.3633 74.7441 26.1465 74.6035 25.8809C74.4629 25.6113 74.3926 25.2852 74.3926 24.9023C74.3926 24.6914 74.4297 24.4629 74.5039 24.2168C74.5781 23.9707 74.6973 23.7441 74.8613 23.5371C75.0293 23.3262 75.2461 23.1504 75.5117 23.0098C75.7812 22.8691 76.1074 22.7988 76.4902 22.7988H79.2383V24.252H76.4902C76.2832 24.252 76.123 24.3164 76.0098 24.4453C75.8965 24.5703 75.8398 24.7266 75.8398 24.9141C75.8398 25.1133 75.9043 25.2695 76.0332 25.3828C76.166 25.4922 76.3223 25.5469 76.502 25.5469H79.2383C79.4453 25.5469 79.6055 25.4844 79.7188 25.3594C79.832 25.2344 79.8887 25.0781 79.8887 24.8906V22.7637C79.8887 22.5645 79.8262 22.4062 79.7012 22.2891C79.5801 22.1719 79.4258 22.1133 79.2383 22.1133H75.8926V20.666H79.2383C79.4492 20.666 79.6758 20.7031 79.918 20.7773C80.1641 20.8516 80.3906 20.9727 80.5977 21.1406C80.8086 21.3047 80.9844 21.5215 81.125 21.791C81.2656 22.0566 81.3359 22.3809 81.3359 22.7637V24.9023ZM84.1836 19.3652H82.6602V17.9883H84.1836V19.3652ZM84.1836 27H82.6602V20.666H84.1836V27Z"
          fill="white"/>
    <path d="M19.8417 2.25339C20.0952 2.50873 20.1744 2.7477 20.1684 3.08173C20.1447 3.34544 20.0801 3.60271 20.0181 3.86119C19.9771 4.03234 19.9379 4.20379 19.8989 4.37528C19.8912 4.40885 19.8835 4.44243 19.8757 4.47703C19.8187 4.72989 19.7734 4.98277 19.7381 5.23866C19.6866 5.60952 19.6087 5.97393 19.5249 6.34018C19.4339 6.73812 19.3509 7.13538 19.2872 7.53749C19.1598 8.33472 18.9853 9.12539 18.8198 9.9171C18.7467 10.2669 18.6754 10.6169 18.6047 10.9671C18.5335 11.3186 18.4563 11.6686 18.3735 12.0182C18.3085 12.2981 18.258 12.5793 18.2086 12.8615C18.1263 13.3293 18.0139 13.7878 17.8879 14.248C17.8011 14.5656 17.8011 14.5656 17.8155 14.8889C17.907 15.0256 17.907 15.0256 18.0593 15.1018C18.2285 15.1018 18.3434 15.0974 18.4803 15.0059C18.5648 14.9114 18.5813 14.8381 18.6058 14.7203C18.6151 14.6771 18.6244 14.634 18.6339 14.5895C18.6481 14.5191 18.6481 14.5191 18.6626 14.4473C18.6729 14.3984 18.6832 14.3494 18.6938 14.2991C18.7268 14.141 18.7588 13.9829 18.7905 13.8247C18.8062 13.7465 18.8062 13.7465 18.8222 13.6667C18.8742 13.4062 18.9256 13.1455 18.9766 12.8848C19.0555 12.4819 19.0555 12.4819 19.0844 12.3353C19.0947 12.2832 19.0947 12.2832 19.1051 12.23C19.1183 12.1659 19.1183 12.1659 19.1318 12.1005C19.142 12.0513 19.142 12.0513 19.1523 12.001C19.1989 11.7805 19.2531 11.5633 19.3163 11.346C19.4535 10.8723 19.542 10.3989 19.615 9.91482C19.6492 9.68866 19.6853 9.46274 19.7216 9.23683C19.7327 9.16736 19.7327 9.16736 19.7441 9.09649C19.8261 8.59124 19.9224 8.08825 20.0215 7.58538C20.0296 7.54405 20.0377 7.50272 20.0461 7.46013C20.1157 7.10688 20.1858 6.75382 20.2641 6.40195C20.3509 6.0109 20.4081 5.61962 20.4593 5.22405C20.5698 4.37853 20.5698 4.37853 20.9356 4.11852C21.197 3.96087 21.4576 3.95883 21.7643 3.99081C22.0676 4.05464 22.2857 4.15917 22.488 4.36663C22.6616 4.65138 22.655 4.95558 22.6497 5.26943C22.6492 5.31428 22.6488 5.35914 22.6484 5.40535C22.6468 5.54403 22.6445 5.68268 22.6419 5.82135C22.6412 5.862 22.6405 5.90264 22.6399 5.94452C22.595 8.55577 22.3747 11.1993 21.9269 13.7815C21.8693 14.1148 21.8179 14.4486 21.768 14.7828C21.7602 14.8344 21.7525 14.886 21.7445 14.9391C21.7143 15.1407 21.6841 15.3423 21.6542 15.544C21.6341 15.6799 21.6135 15.8158 21.5928 15.9517C21.5869 15.992 21.581 16.0323 21.575 16.0738C21.5167 16.4518 21.5167 16.4518 21.4231 16.5918C21.0792 16.6894 20.7125 16.7083 20.3542 16.7439C19.677 16.8119 19.0118 16.9053 18.3457 17.0333C18.2083 17.0595 18.0707 17.0843 17.933 17.1089C17.0537 17.2699 16.2005 17.5106 15.378 17.8263C15.3019 17.8522 15.2257 17.878 15.1495 17.9035C14.8903 17.9931 14.6406 18.099 14.3894 18.2041C14.1829 18.2898 13.9755 18.3687 13.7627 18.4413C12.4852 18.8781 11.2741 19.5579 10.1617 20.2529C10.1022 20.2895 10.0427 20.3262 9.98322 20.3628C9.84107 20.4505 9.69964 20.539 9.5587 20.6282C9.48168 20.677 9.40443 20.7254 9.32718 20.7738C9.04099 20.9566 8.77669 21.1503 8.51852 21.3617C8.34512 21.5032 8.16544 21.6314 7.97568 21.7556C7.8204 21.8623 7.67848 21.981 7.53597 22.1004C7.4186 22.177 7.33199 22.1957 7.18786 22.2111C7.15161 22.0654 7.12917 21.924 7.11722 21.7753C7.11363 21.7314 7.11004 21.6875 7.10634 21.6423C7.10079 21.5711 7.10079 21.5711 7.09512 21.4984C7.09112 21.4483 7.08713 21.3983 7.08301 21.3468C7.07001 21.1826 7.05731 21.0184 7.04465 20.8542C7.04023 20.7974 7.0358 20.7407 7.03136 20.684C6.97233 19.9269 6.92475 19.17 6.89231 18.4117C6.85594 17.5654 6.7923 16.7259 6.65465 15.8869C6.57367 15.364 6.53098 14.8372 6.48097 14.3116C6.47551 14.2546 6.47003 14.1977 6.46455 14.1408C6.40164 13.487 6.34043 12.8334 6.29416 12.1786C6.26737 11.8011 6.23338 11.4243 6.19817 11.0474C6.10283 10.0227 6.0129 8.99701 6.00261 7.96852C6.00175 7.92096 6.00089 7.8734 6 7.8244C6.00041 7.40329 6.06983 7.05325 6.41432 6.74494C6.70164 6.51714 6.93222 6.46923 7.32611 6.4807C7.56299 6.51415 7.71661 6.59872 7.87037 6.75791C8.02699 6.97252 8.10778 7.15756 8.16154 7.40645C8.16943 7.44099 8.17731 7.47554 8.18543 7.51113C8.28579 7.96179 8.3669 8.41558 8.44863 8.86904C8.47735 9.02838 8.50636 9.18768 8.53544 9.34696C8.60291 9.71683 8.6699 10.0868 8.7367 10.4567C8.9971 11.8986 9.29548 13.334 9.61626 14.7665C9.62779 14.8183 9.63932 14.87 9.65121 14.9233C9.68433 15.0717 9.71775 15.2199 9.75127 15.3682C9.76101 15.4118 9.77075 15.4555 9.78078 15.5005C9.82874 15.7108 9.88093 15.92 9.94051 16.1281C9.95132 16.1661 9.96213 16.204 9.97327 16.2432C10.0103 16.3509 10.0103 16.3509 10.1617 16.4215C10.3423 16.4299 10.4771 16.429 10.6492 16.3789C10.6815 15.9557 10.5944 15.5658 10.4964 15.1543C10.4501 14.9595 10.4056 14.7645 10.3608 14.5695C10.3519 14.5308 10.343 14.4921 10.3338 14.4523C10.2603 14.1322 10.1953 13.8114 10.1342 13.4894C10.0507 13.0529 9.95528 12.6192 9.85392 12.1857C9.66882 11.3939 9.50857 10.5985 9.34909 9.80258C9.303 9.57338 9.25502 9.34455 9.2053 9.11593C9.14712 8.8476 9.09552 8.57878 9.04648 8.30908C8.98367 7.97123 8.91039 7.6372 8.82406 7.30335C8.6896 6.78149 8.58777 6.25577 8.48692 5.72829C8.45429 5.56031 8.42028 5.39257 8.38587 5.22486C8.37444 5.16869 8.36301 5.11252 8.35159 5.05635C8.32993 4.95003 8.30805 4.84376 8.28589 4.73752C8.14378 4.03348 8.14378 4.03348 8.37997 3.69747C8.5853 3.45297 8.84437 3.28724 9.18664 3.22453C9.6667 3.18041 9.99097 3.2541 10.3658 3.51721C10.8504 3.86586 10.9319 4.57529 11.0605 5.08435C11.0796 5.15859 11.0988 5.23283 11.1181 5.30706C11.1561 5.45395 11.1939 5.60087 11.2314 5.74785C11.2983 6.00937 11.3664 6.27063 11.4353 6.53175C11.4467 6.57516 11.4582 6.61857 11.4699 6.66329C11.6994 7.52775 11.9559 8.38663 12.2113 9.24547C12.2712 9.44716 12.3303 9.649 12.3884 9.85111C12.8174 11.7682 12.8174 11.7682 13.9155 13.399C14.0828 13.4624 14.0828 13.4624 14.2567 13.4415C14.4941 13.2987 14.6105 13.16 14.7168 12.9254C14.7308 12.8958 14.7448 12.8663 14.7592 12.8359C14.8041 12.7401 14.8474 12.6439 14.8905 12.5475C14.9125 12.4992 14.9125 12.4992 14.9349 12.4499C15.1433 11.9891 15.3079 11.5257 15.443 11.0448C15.4777 10.922 15.5134 10.7993 15.5492 10.6768C15.6401 10.3642 15.7288 10.0511 15.8167 9.73786C15.826 9.70487 15.8353 9.67188 15.8449 9.63788C16.0958 8.74471 16.3385 7.8517 16.5318 6.94747C16.5885 6.68579 16.6517 6.43098 16.7455 6.17722C16.8479 5.89944 16.9026 5.6224 16.9532 5.33445C17.0661 4.72848 17.2188 4.13563 17.3859 3.53951C17.4385 3.3476 17.4861 3.15479 17.5331 2.96177C17.6591 2.56994 18.0003 2.31197 18.3933 2.11503C18.869 1.91776 19.4144 1.98087 19.8417 2.25339Z"
          fill="#FBFBFB"/>
    <path d="M25.6251 13.7432C25.797 13.8794 25.9224 14.011 25.9944 14.2169C26.0163 14.4667 25.9769 14.5961 25.8317 14.8034C25.7968 14.8549 25.7619 14.9064 25.727 14.9579C25.7087 14.9844 25.6904 15.0109 25.6716 15.0382C25.3272 15.5392 25.0476 16.0526 24.8117 16.6079C24.7982 16.6394 24.7847 16.671 24.7708 16.7034C24.2583 17.9242 24.2189 19.2704 24.1439 20.5689C24.0707 21.836 23.9845 23.0831 23.6586 24.3168C23.6454 24.3673 23.6321 24.4177 23.6185 24.4697C23.4833 24.9618 23.3003 25.4132 23.0023 25.8366C22.9796 25.8692 22.957 25.9019 22.9336 25.9356C22.2227 26.9464 21.1754 27.9371 19.8919 28.2023C19.1578 28.3331 18.3224 28.3206 17.6212 28.0669C17.5722 28.0506 17.5232 28.0342 17.4727 28.0174C17.0057 27.849 16.5949 27.5987 16.2494 27.2549C16.1984 27.2061 16.1984 27.2061 16.1464 27.1563C15.8477 26.8558 15.6417 26.5381 15.4452 26.1721C15.4152 26.1174 15.4152 26.1174 15.3846 26.0616C14.9931 25.2514 15.0022 24.1376 15.2976 23.3024C15.7074 22.2621 16.2789 21.4857 17.1955 20.8035C17.2367 20.772 17.2779 20.7405 17.3204 20.708C18.3185 19.9756 19.7226 19.5295 20.9799 19.5403C20.9884 19.5103 20.9969 19.4803 21.0056 19.4494C21.1051 19.0988 21.2112 18.7502 21.319 18.4018C21.3939 18.1587 21.4666 17.9153 21.5349 17.6704C21.8224 16.6428 22.2086 15.5632 22.9668 14.7583C23.002 14.7199 23.0372 14.6815 23.0734 14.6419C23.1783 14.5289 23.2849 14.4178 23.3925 14.3071C23.4202 14.2777 23.4479 14.2484 23.4764 14.2181C23.6878 14.0028 23.9237 13.8575 24.1967 13.7206C24.241 13.6974 24.241 13.6974 24.2862 13.6738C24.6962 13.4918 25.2481 13.5044 25.6251 13.7432Z"
          fill="#FCFCFC"/>
    <path d="M20.9318 17.8815C20.9248 17.9841 20.9155 18.0865 20.9052 18.1889C20.9002 18.2459 20.8953 18.303 20.8902 18.3617C20.8372 18.5131 20.8372 18.5131 20.6947 18.5951C20.4903 18.6602 20.279 18.7015 20.0685 18.7443C19.654 18.8338 19.2508 18.9471 18.8474 19.0742C18.769 19.0985 18.769 19.0985 18.6891 19.1233C18.1923 19.2829 17.7451 19.4873 17.3223 19.7834C17.201 19.8624 17.0765 19.9301 16.9473 19.9966C16.6573 20.1461 16.4235 20.3073 16.1984 20.5397C16.1167 20.6231 16.0346 20.6925 15.941 20.7632C15.7108 20.9471 15.5325 21.1746 15.3497 21.4004C15.3081 21.451 15.3081 21.451 15.2656 21.5026C14.8824 21.9945 14.5152 22.5968 14.4036 23.205C14.3944 23.2474 14.3944 23.2474 14.385 23.2907C14.1827 24.2246 14.0984 25.3485 14.5455 26.2276C14.5614 26.2589 14.5773 26.2903 14.5936 26.3225C14.832 26.7873 15.0768 27.1978 15.4443 27.581C15.4799 27.6213 15.5155 27.6616 15.5522 27.7032C15.954 28.1513 16.3481 28.3032 16.9374 28.4664C17.0588 28.5006 17.18 28.5351 17.3013 28.5697C17.3859 28.5937 17.3859 28.5937 17.4722 28.6182C17.5883 28.6539 17.693 28.6923 17.8022 28.7429C17.9979 28.8166 18.1661 28.8174 18.3743 28.8132C18.4282 28.8134 18.4282 28.8134 18.4833 28.8137C18.7304 28.8114 18.9433 28.7709 19.1815 28.7089C19.3234 28.7033 19.3234 28.7033 19.418 28.7089C19.4123 28.8108 19.4123 28.8108 19.3707 28.9345C19.2478 29.0243 19.2478 29.0243 19.0839 29.1093C19.0545 29.1245 19.0251 29.1398 18.9949 29.1555C17.1656 30.0859 15.0147 30.2364 13.0323 29.662C12.6534 29.5433 12.2982 29.3779 11.9437 29.2051C11.906 29.1869 11.8682 29.1687 11.8293 29.1499C11.2054 28.847 10.6268 28.5328 10.0932 28.097C9.93495 27.9694 9.77105 27.8506 9.60428 27.7333C9.58014 27.7128 9.55599 27.6924 9.53111 27.6713C9.53111 27.6415 9.53111 27.6117 9.53111 27.581C9.49989 27.581 9.46867 27.581 9.4365 27.581C9.4365 27.5513 9.4365 27.5215 9.4365 27.4908C9.4093 27.4804 9.3821 27.47 9.35408 27.4593C9.15032 27.3473 9.02393 27.151 8.881 26.9764C8.82224 26.9052 8.76211 26.8351 8.70196 26.7649C8.40394 26.4137 8.17785 26.0464 7.97002 25.6411C7.92968 25.564 7.92968 25.564 7.88853 25.4854C7.45901 24.6359 7.45901 24.6359 7.59157 24.2426C7.91486 23.6535 8.4201 23.2832 8.96344 22.8892C8.99348 22.8673 9.02352 22.8454 9.05447 22.8229C9.47638 22.5159 9.90577 22.2203 10.3405 21.9302C10.4914 21.8292 10.6399 21.7254 10.7877 21.6203C11.0497 21.4376 11.3241 21.2763 11.6002 21.1139C11.8082 20.9912 12.0136 20.8649 12.2187 20.7378C12.2865 20.6958 12.3544 20.6538 12.4223 20.6118C12.454 20.5922 12.4857 20.5726 12.5183 20.5523C12.6742 20.4559 12.8303 20.36 12.9876 20.2657C13.0616 20.2212 13.1356 20.1766 13.2089 20.131C14.0957 19.5803 15.0791 19.0913 16.0991 18.8122C16.21 18.7814 16.3198 18.748 16.4298 18.7144C16.9409 18.5598 17.4518 18.4482 17.9784 18.354C18.1654 18.3193 18.3511 18.2796 18.5369 18.2396C18.5722 18.2321 18.6075 18.2245 18.6439 18.2168C18.8005 18.1833 18.9571 18.1496 19.1137 18.1155C19.4315 18.0481 19.7502 17.991 20.0714 17.9407C20.1081 17.9348 20.1449 17.9289 20.1827 17.9227C20.4352 17.8846 20.6762 17.8764 20.9318 17.8815Z"
          fill="#FBFBFB"/>
</svg>
